<?xml version="1.0" encoding="UTF-8" standalone="no"?>
<!DOCTYPE svg PUBLIC "-//W3C//DTD SVG 1.1//EN" "http://www.w3.org/Graphics/SVG/1.1/DTD/svg11.dtd">
<!-- 由 Microsoft Visio, SVG Export 生成 共模电感变量图示.svg Page-1 -->
<svg xmlns="http://www.w3.org/2000/svg" xmlns:xlink="http://www.w3.org/1999/xlink" xmlns:ev="http://www.w3.org/2001/xml-events"
		xmlns:v="http://schemas.microsoft.com/visio/2003/SVGExtensions/" width="7.2742in" height="2.53448in"
		viewBox="0 0 523.742 182.482" xml:space="preserve" color-interpolation-filters="sRGB" class="st29">
	<v:documentProperties v:langID="2052" v:metric="true" v:viewMarkup="false">
		<v:userDefs>
			<v:ud v:nameU="msvNoAutoConnect" v:val="VT0(1):26"/>
		</v:userDefs>
	</v:documentProperties>

	<style type="text/css">
	<![CDATA[
		.st1 {fill:#00b050;stroke:#000000;stroke-linecap:round;stroke-linejoin:round;stroke-width:0.75}
		.st2 {fill:#ffffff;stroke:#000000;stroke-linecap:round;stroke-linejoin:round;stroke-width:0.75}
		.st3 {stroke:#ff0000;stroke-linecap:round;stroke-linejoin:round;stroke-width:3}
		.st4 {stroke:#0000ff;stroke-linecap:round;stroke-linejoin:round;stroke-width:3}
		.st5 {fill:none;stroke:none;stroke-linecap:round;stroke-linejoin:round;stroke-width:0.75}
		.st6 {fill:#ff0000;font-family:宋体;font-size:1.00001em}
		.st7 {fill:#0000ff;font-family:宋体;font-size:1.00001em}
		.st8 {fill:#7f7f7f;stroke:none;stroke-linecap:round;stroke-linejoin:round;stroke-width:0.75}
		.st9 {stroke:#ff0000;stroke-dasharray:0.75,1.5;stroke-linecap:round;stroke-linejoin:round;stroke-width:0.75}
		.st10 {stroke:#0000ff;stroke-dasharray:0.75,1.5;stroke-linecap:round;stroke-linejoin:round;stroke-width:0.75}
		.st11 {fill:#000000;font-family:宋体;font-size:0.75em}
		.st12 {font-family:Times New Roman;font-size:1em}
		.st13 {marker-end:url(#mrkr5-128);marker-start:url(#mrkr5-126);stroke:#ff0000;stroke-dasharray:0.5,1;stroke-linecap:round;stroke-linejoin:round;stroke-width:0.5}
		.st14 {fill:#ff0000;fill-opacity:1;stroke:#ff0000;stroke-opacity:1;stroke-width:0.16556291390728}
		.st15 {stroke:#000000;stroke-linecap:round;stroke-linejoin:round;stroke-width:0.75}
		.st16 {fill:#ffffff;stroke:none;stroke-linecap:butt;stroke-width:7.2}
		.st17 {marker-end:url(#mrkr5-152);marker-start:url(#mrkr5-150);stroke:#0000ff;stroke-dasharray:0.5,1;stroke-linecap:round;stroke-linejoin:round;stroke-width:0.5}
		.st18 {fill:#0000ff;fill-opacity:1;stroke:#0000ff;stroke-opacity:1;stroke-width:0.16556291390728}
		.st19 {fill:#00b050;font-family:宋体;font-size:1.00001em}
		.st20 {font-family:Symbol;font-size:1em}
		.st21 {stroke:#00b050;stroke-linecap:round;stroke-linejoin:round;stroke-width:0.75}
		.st22 {fill:#000000;font-family:宋体;font-size:1.00001em}
		.st23 {font-family:Times New Roman;font-size:1em;font-style:italic}
		.st24 {baseline-shift:-32.4941%;font-family:Times New Roman;font-size:0.649882em;font-style:italic}
		.st25 {fill:#7f7f7f;font-family:宋体;font-size:1.00001em}
		.st26 {marker-end:url(#mrkr5-275);marker-start:url(#mrkr5-273);stroke:#000000;stroke-linecap:round;stroke-linejoin:round;stroke-width:0.75}
		.st27 {fill:#000000;fill-opacity:1;stroke:#000000;stroke-opacity:1;stroke-width:0.29411764705882}
		.st28 {stroke:#000000;stroke-dasharray:0.75,1.5;stroke-linecap:round;stroke-linejoin:round;stroke-width:0.75}
		.st29 {fill:none;fill-rule:evenodd;font-size:12px;overflow:visible;stroke-linecap:square;stroke-miterlimit:3}
	]]>
	</style>

	<defs id="Markers">
		<g id="lend5">
			<path d="M 2 1 L 0 0 L 1.98117 -0.993387 C 1.67173 -0.364515 1.67301 0.372641 1.98465 1.00043 " style="stroke:none"/>
		</g>
		<marker id="mrkr5-126" class="st14" v:arrowType="5" v:arrowSize="2" v:setback="9.85" refX="9.85" orient="auto"
				markerUnits="strokeWidth" overflow="visible">
			<use xlink:href="#lend5" transform="scale(6.04) "/>
		</marker>
		<marker id="mrkr5-128" class="st14" v:arrowType="5" v:arrowSize="2" v:setback="9.85" refX="-9.85" orient="auto"
				markerUnits="strokeWidth" overflow="visible">
			<use xlink:href="#lend5" transform="scale(-6.04,-6.04) "/>
		</marker>
		<marker id="mrkr5-150" class="st18" v:arrowType="5" v:arrowSize="2" v:setback="9.85" refX="9.85" orient="auto"
				markerUnits="strokeWidth" overflow="visible">
			<use xlink:href="#lend5" transform="scale(6.04) "/>
		</marker>
		<marker id="mrkr5-152" class="st18" v:arrowType="5" v:arrowSize="2" v:setback="9.85" refX="-9.85" orient="auto"
				markerUnits="strokeWidth" overflow="visible">
			<use xlink:href="#lend5" transform="scale(-6.04,-6.04) "/>
		</marker>
		<marker id="mrkr5-273" class="st27" v:arrowType="5" v:arrowSize="1" v:setback="5.47" refX="5.47" orient="auto"
				markerUnits="strokeWidth" overflow="visible">
			<use xlink:href="#lend5" transform="scale(3.4) "/>
		</marker>
		<marker id="mrkr5-275" class="st27" v:arrowType="5" v:arrowSize="1" v:setback="5.95" refX="-5.95" orient="auto"
				markerUnits="strokeWidth" overflow="visible">
			<use xlink:href="#lend5" transform="scale(-3.4,-3.4) "/>
		</marker>
	</defs>
	<g v:mID="0" v:index="1" v:groupContext="foregroundPage">
		<title>页-1</title>
		<v:pageProperties v:drawingScale="0.0393701" v:pageScale="0.0393701" v:drawingUnits="24" v:shadowOffsetX="8.50394"
				v:shadowOffsetY="-8.50394"/>
		<v:layer v:name="连接线" v:index="0"/>
		<g id="group1-1" transform="translate(46.4504,-22.1215)" v:mID="1" v:groupContext="group">
			<title>工作表.1</title>
			<g id="shape2-2" v:mID="2" v:groupContext="shape">
				<title>工作表.2</title>
				<ellipse cx="69.7323" cy="112.75" rx="69.7323" ry="69.7323" class="st1"/>
			</g>
			<g id="shape3-4" v:mID="3" v:groupContext="shape" transform="translate(34.6713,-34.6713)">
				<title>工作表.3</title>
				<ellipse cx="35.061" cy="147.421" rx="35.061" ry="35.061" class="st2"/>
			</g>
		</g>
		<g id="shape4-6" v:mID="4" v:groupContext="shape" transform="translate(2.98586,-108.862)">
			<title>工作表.4</title>
			<path d="M0 182.48 L45.57 182.48" class="st3"/>
		</g>
		<g id="shape5-9" v:mID="5" v:groupContext="shape" transform="translate(104.972,-99.9221) rotate(18.0083)">
			<title>工作表.5</title>
			<path d="M0 182.48 L34.83 182.48" class="st3"/>
		</g>
		<g id="shape6-12" v:mID="6" v:groupContext="shape" transform="translate(127.481,-104.451) rotate(24.1422)">
			<title>工作表.6</title>
			<path d="M0 182.48 L34.42 182.48" class="st3"/>
		</g>
		<g id="shape7-15" v:mID="7" v:groupContext="shape" transform="translate(156.333,-104.097) rotate(32.1512)">
			<title>工作表.7</title>
			<path d="M0 182.48 L34.67 182.48" class="st3"/>
		</g>
		<g id="shape8-18" v:mID="8" v:groupContext="shape" transform="translate(190.275,-96.4379) rotate(41.7969)">
			<title>工作表.8</title>
			<path d="M0 182.48 L34.96 182.48" class="st3"/>
		</g>
		<g id="shape9-21" v:mID="9" v:groupContext="shape" transform="translate(220.508,-85.1105) rotate(50.4355)">
			<title>工作表.9</title>
			<path d="M0 182.48 L35.39 182.48" class="st3"/>
		</g>
		<g id="shape10-24" v:mID="10" v:groupContext="shape" transform="translate(258.064,-54.0762) rotate(64.4245)">
			<title>工作表.10</title>
			<path d="M0 182.48 L35.13 182.48" class="st3"/>
		</g>
		<g id="shape11-27" v:mID="11" v:groupContext="shape" transform="translate(298.388,17.6259) rotate(88.973)">
			<title>工作表.11</title>
			<path d="M0 182.48 L34.68 182.48" class="st3"/>
		</g>
		<g id="shape12-30" v:mID="12" v:groupContext="shape" transform="translate(126.382,-100.769) rotate(-18.0083) scale(-1,1)">
			<title>工作表.12</title>
			<path d="M0 182.48 L34.83 182.48" class="st3"/>
		</g>
		<g id="shape13-33" v:mID="13" v:groupContext="shape" transform="translate(103.872,-105.298) rotate(-24.1422) scale(-1,1)">
			<title>工作表.13</title>
			<path d="M0 182.48 L34.42 182.48" class="st3"/>
		</g>
		<g id="shape14-36" v:mID="14" v:groupContext="shape" transform="translate(75.0203,-104.944) rotate(-32.1512) scale(-1,1)">
			<title>工作表.14</title>
			<path d="M0 182.48 L34.67 182.48" class="st3"/>
		</g>
		<g id="shape15-39" v:mID="15" v:groupContext="shape" transform="translate(41.0781,-97.285) rotate(-41.7969) scale(-1,1)">
			<title>工作表.15</title>
			<path d="M0 182.48 L34.96 182.48" class="st3"/>
		</g>
		<g id="shape16-42" v:mID="16" v:groupContext="shape" transform="translate(10.8453,-85.9575) rotate(-50.4355) scale(-1,1)">
			<title>工作表.16</title>
			<path d="M0 182.48 L35.39 182.48" class="st3"/>
		</g>
		<g id="shape17-45" v:mID="17" v:groupContext="shape" transform="translate(-26.711,-54.9232) rotate(-64.4245) scale(-1,1)">
			<title>工作表.17</title>
			<path d="M0 182.48 L35.13 182.48" class="st3"/>
		</g>
		<g id="shape18-48" v:mID="18" v:groupContext="shape" transform="translate(182.797,-109.709)">
			<title>工作表.18</title>
			<path d="M0 182.48 L40.22 182.48" class="st3"/>
		</g>
		<g id="shape19-51" v:mID="19" v:groupContext="shape" transform="translate(5.02237,290.366) scale(1,-1)">
			<title>工作表.19</title>
			<path d="M0 182.48 L43.11 182.48" class="st4"/>
		</g>
		<g id="shape20-54" v:mID="20" v:groupContext="shape" transform="translate(104.546,281.426) rotate(-18.0083) scale(1,-1)">
			<title>工作表.20</title>
			<path d="M0 182.48 L34.83 182.48" class="st4"/>
		</g>
		<g id="shape21-57" v:mID="21" v:groupContext="shape" transform="translate(127.056,285.955) rotate(-24.1422) scale(1,-1)">
			<title>工作表.21</title>
			<path d="M0 182.48 L34.42 182.48" class="st4"/>
		</g>
		<g id="shape22-60" v:mID="22" v:groupContext="shape" transform="translate(155.908,285.601) rotate(-32.1512) scale(1,-1)">
			<title>工作表.22</title>
			<path d="M0 182.48 L34.67 182.48" class="st4"/>
		</g>
		<g id="shape23-63" v:mID="23" v:groupContext="shape" transform="translate(189.85,277.942) rotate(-41.7969) scale(1,-1)">
			<title>工作表.23</title>
			<path d="M0 182.48 L34.96 182.48" class="st4"/>
		</g>
		<g id="shape24-66" v:mID="24" v:groupContext="shape" transform="translate(220.083,266.614) rotate(-50.4355) scale(1,-1)">
			<title>工作表.24</title>
			<path d="M0 182.48 L35.39 182.48" class="st4"/>
		</g>
		<g id="shape25-69" v:mID="25" v:groupContext="shape" transform="translate(257.639,235.58) rotate(-64.4245) scale(1,-1)">
			<title>工作表.25</title>
			<path d="M0 182.48 L35.13 182.48" class="st4"/>
		</g>
		<g id="shape26-72" v:mID="26" v:groupContext="shape" transform="translate(297.963,163.878) rotate(-88.973) scale(1,-1)">
			<title>工作表.26</title>
			<path d="M0 182.48 L34.68 182.48" class="st4"/>
		</g>
		<g id="shape27-75" v:mID="27" v:groupContext="shape" transform="translate(125.956,282.273) rotate(-161.992)">
			<title>工作表.27</title>
			<path d="M0 182.48 L34.83 182.48" class="st4"/>
		</g>
		<g id="shape28-78" v:mID="28" v:groupContext="shape" transform="translate(103.447,286.802) rotate(-155.858)">
			<title>工作表.28</title>
			<path d="M0 182.48 L34.42 182.48" class="st4"/>
		</g>
		<g id="shape29-81" v:mID="29" v:groupContext="shape" transform="translate(74.5951,286.448) rotate(-147.849)">
			<title>工作表.29</title>
			<path d="M0 182.48 L34.67 182.48" class="st4"/>
		</g>
		<g id="shape30-84" v:mID="30" v:groupContext="shape" transform="translate(40.6529,278.789) rotate(-138.203)">
			<title>工作表.30</title>
			<path d="M0 182.48 L34.96 182.48" class="st4"/>
		</g>
		<g id="shape31-87" v:mID="31" v:groupContext="shape" transform="translate(10.4201,267.461) rotate(-129.565)">
			<title>工作表.31</title>
			<path d="M0 182.48 L35.39 182.48" class="st4"/>
		</g>
		<g id="shape32-90" v:mID="32" v:groupContext="shape" transform="translate(-27.1362,236.427) rotate(-115.576)">
			<title>工作表.32</title>
			<path d="M0 182.48 L35.13 182.48" class="st4"/>
		</g>
		<g id="shape33-93" v:mID="33" v:groupContext="shape" transform="translate(182.372,291.213) scale(1,-1)">
			<title>工作表.33</title>
			<path d="M0 182.48 L41.59 182.48" class="st4"/>
		</g>
		<g id="shape34-96" v:mID="34" v:groupContext="shape" transform="translate(0.375,-109.588)">
			<title>工作表.34</title>
			<desc>正线</desc>
			<v:textBlock v:margins="rect(4,4,4,4)" v:tabSpace="42.5197"/>
			<v:textRect cx="19.1969" cy="172.482" width="38.4" height="20"/>
			<rect x="0" y="162.482" width="38.3937" height="20" class="st5"/>
			<text x="7.2" y="176.08" class="st6" v:langID="2052"><v:paragraph v:horizAlign="1"/><v:tabList/>正线</text>		</g>
		<g id="shape35-99" v:mID="35" v:groupContext="shape" transform="translate(7.59802,-75.5718)">
			<title>工作表.35</title>
			<desc>负线</desc>
			<v:textBlock v:margins="rect(4,4,4,4)" v:tabSpace="42.5197"/>
			<v:textRect cx="19.1969" cy="172.482" width="38.4" height="20"/>
			<rect x="0" y="162.482" width="38.3937" height="20" class="st5"/>
			<text x="7.2" y="176.08" class="st7" v:langID="2052"><v:paragraph v:horizAlign="1"/><v:tabList/>负线</text>		</g>
		<g id="shape38-102" v:mID="38" v:groupContext="shape" transform="translate(191.714,-109.588)">
			<title>工作表.38</title>
			<desc>正线</desc>
			<v:textBlock v:margins="rect(4,4,4,4)" v:tabSpace="42.5197"/>
			<v:textRect cx="19.1969" cy="172.482" width="38.4" height="20"/>
			<rect x="0" y="162.482" width="38.3937" height="20" class="st5"/>
			<text x="7.2" y="176.08" class="st6" v:langID="2052"><v:paragraph v:horizAlign="1"/><v:tabList/>正线</text>		</g>
		<g id="shape39-105" v:mID="39" v:groupContext="shape" transform="translate(191.714,-74.2333)">
			<title>工作表.39</title>
			<desc>负线</desc>
			<v:textBlock v:margins="rect(4,4,4,4)" v:tabSpace="42.5197"/>
			<v:textRect cx="19.1969" cy="172.482" width="38.4" height="20"/>
			<rect x="0" y="162.482" width="38.3937" height="20" class="st5"/>
			<text x="7.2" y="176.08" class="st7" v:langID="2052"><v:paragraph v:horizAlign="1"/><v:tabList/>负线</text>		</g>
		<g id="shape40-108" v:mID="40" v:groupContext="shape" transform="translate(81.3756,-87.8396)">
			<title>工作表.40</title>
			<rect x="0" y="174.404" width="69.7323" height="8.07874" class="st8"/>
		</g>
		<g id="shape42-110" v:mID="42" v:groupContext="shape" transform="translate(114.399,-95.1363) rotate(10.3286)">
			<title>工作表.42</title>
			<path d="M0 182.48 L34.81 182.48" class="st9"/>
		</g>
		<g id="shape43-113" v:mID="43" v:groupContext="shape" transform="translate(47.7124,-82.2578) rotate(-10.5923)">
			<title>工作表.43</title>
			<path d="M0 182.48 L35.28 182.48" class="st10"/>
		</g>
		<g id="shape44-116" v:mID="44" v:groupContext="shape" transform="translate(49.7063,-81.1624)">
			<title>工作表.44</title>
			<desc>≥30°</desc>
			<v:textBlock v:margins="rect(4,4,4,4)" v:tabSpace="42.5197"/>
			<v:textRect cx="19.1969" cy="172.482" width="38.4" height="20"/>
			<rect x="0" y="162.482" width="38.3937" height="20" class="st5"/>
			<text x="8.4" y="175.44" class="st11" v:langID="2052"><v:paragraph v:horizAlign="1"/><v:tabList/>≥<tspan class="st12">30°</tspan></text>		</g>
		<g id="shape45-120" v:mID="45" v:groupContext="shape" transform="translate(194.498,194.353) rotate(180)">
			<title>工作表.45</title>
			<path d="M1.91 128.87 L2.05 129.2 A86.011 98.7167 -180 0 0 154.77 129.2 L154.91 128.87" class="st13"/>
		</g>
		<g id="shape46-129" v:mID="46" v:groupContext="shape" transform="translate(-1.29274,75.6506) rotate(-90) scale(-1,1)">
			<title>工作表.46</title>
			<path d="M-0 177.91 A16.5694 7.75789 -180 0 0 30.21 177.91" class="st15"/>
		</g>
		<g id="shape47-132" v:mID="47" v:groupContext="shape" transform="translate(151.108,-81.1624)">
			<title>工作表.47</title>
			<desc>≥30°</desc>
			<v:textBlock v:margins="rect(4,4,4,4)" v:tabSpace="42.5197"/>
			<v:textRect cx="19.1969" cy="172.482" width="38.4" height="20"/>
			<rect x="0" y="162.482" width="38.3937" height="20" class="st5"/>
			<text x="8.4" y="175.44" class="st11" v:langID="2052"><v:paragraph v:horizAlign="1"/><v:tabList/>≥<tspan class="st12">30°</tspan></text>		</g>
		<g id="shape51-136" v:mID="51" v:groupContext="shape" transform="translate(236.398,76.1917) rotate(90)">
			<title>工作表.51</title>
			<path d="M0 177.91 A15.2498 7.75789 -180 0 0 27.81 177.91" class="st15"/>
		</g>
		<g id="shape52-139" v:mID="52" v:groupContext="shape" transform="translate(96.9858,-162.107)">
			<title>工作表.52</title>
			<desc>匝数N</desc>
			<v:textBlock v:margins="rect(0,0,0,0)" v:tabSpace="42.5197"/>
			<v:textRect cx="19.1969" cy="172.482" width="38.4" height="20"/>
			<rect x="0" y="162.482" width="38.3937" height="20" class="st5"/>
			<rect v:rectContext="textBkgnd" x="2.86359" y="164.586" width="32.6662" height="15.7931" class="st16"/>
			<text x="2.86" y="176.43" class="st6" v:langID="2052"><v:paragraph v:horizAlign="1"/><v:tabList/>匝数<tspan class="st12">N</tspan></text>		</g>
		<g id="shape53-144" v:mID="53" v:groupContext="shape" transform="translate(191.714,-10.4138) scale(-1,1)">
			<title>工作表.53</title>
			<path d="M1.91 128.87 L2.05 129.2 A86.011 98.7167 -180 0 0 154.77 129.2 L154.91 128.87" class="st17"/>
		</g>
		<g id="shape54-153" v:mID="54" v:groupContext="shape" transform="translate(96.9858,-0.375)">
			<title>工作表.54</title>
			<desc>匝数N</desc>
			<v:textBlock v:margins="rect(0,0,0,0)" v:tabSpace="42.5197"/>
			<v:textRect cx="19.1969" cy="172.482" width="38.4" height="20"/>
			<rect x="0" y="162.482" width="38.3937" height="20" class="st5"/>
			<rect v:rectContext="textBkgnd" x="2.86359" y="164.586" width="32.6662" height="15.7931" class="st16"/>
			<text x="2.86" y="176.43" class="st7" v:langID="2052"><v:paragraph v:horizAlign="1"/><v:tabList/>匝数<tspan class="st12">N</tspan></text>		</g>
		<g id="shape55-158" v:mID="55" v:groupContext="shape" transform="translate(183.21,-143.086)">
			<title>工作表.55</title>
			<desc>磁导率m</desc>
			<v:textBlock v:margins="rect(4,4,4,4)" v:tabSpace="42.5197"/>
			<v:textRect cx="30.8583" cy="172.482" width="61.72" height="20"/>
			<rect x="0" y="162.482" width="61.7165" height="20" class="st5"/>
			<text x="9.4" y="176.43" class="st19" v:langID="2052"><v:paragraph v:horizAlign="1"/><v:tabList/>磁导率<tspan class="st20">m</tspan></text>		</g>
		<g id="shape56-162" v:mID="56" v:groupContext="shape" transform="translate(173.005,-125.257)">
			<title>工作表.56</title>
			<path d="M0 182.48 L13.69 162.64 L66.9 162.64" class="st21"/>
		</g>
		<g id="shape62-165" v:mID="62" v:groupContext="shape" transform="translate(221.383,-89.7844)">
			<title>工作表.62</title>
			<path d="M0 162.64 L15.12 182.48 L90.71 182.48" class="st15"/>
		</g>
		<g id="shape63-168" v:mID="63" v:groupContext="shape" transform="translate(228.564,-89.627)">
			<title>工作表.63</title>
			<desc>线径d,长度lR</desc>
			<v:textBlock v:margins="rect(4,4,4,4)" v:tabSpace="42.5197"/>
			<v:textRect cx="45.3543" cy="172.482" width="90.71" height="20"/>
			<rect x="0" y="162.482" width="90.7087" height="20" class="st5"/>
			<text x="12.81" y="176.43" class="st22" v:langID="2052"><v:paragraph v:horizAlign="1"/><v:tabList/>线径<tspan
						class="st23">d</tspan><tspan class="st12">,</tspan>长度<tspan class="st23">l</tspan><tspan dy="-0.279em"
						class="st24" v:baseFontSize="12">R</tspan></text>		</g>
		<g id="shape41-175" v:mID="41" v:groupContext="shape" transform="translate(91.8145,-96.9104)">
			<title>工作表.41</title>
			<desc>绝缘隔板</desc>
			<v:textBlock v:margins="rect(0,0,0,0)" v:tabSpace="42.5197"/>
			<v:textRect cx="24.3681" cy="175.396" width="48.74" height="14.1732"/>
			<rect x="0" y="168.309" width="48.7362" height="14.1732" class="st5"/>
			<rect v:rectContext="textBkgnd" x="0.367767" y="168.196" width="48.0004" height="14.4001" class="st16"/>
			<text x="0.37" y="179" class="st25" v:langID="2052"><v:paragraph v:horizAlign="1"/><v:tabList/>绝缘隔板</text>		</g>
		<g id="shape69-179" v:mID="69" v:groupContext="shape" transform="translate(369.525,-45.7293)">
			<title>工作表.69</title>
			<desc>外径OD</desc>
			<v:textBlock v:margins="rect(4,4,4,4)" v:tabSpace="42.5197"/>
			<v:textRect cx="30.8583" cy="172.482" width="61.72" height="20"/>
			<rect x="0" y="162.482" width="61.7165" height="20" class="st5"/>
			<text x="10.19" y="176.43" class="st22" v:langID="2052"><v:paragraph v:horizAlign="1"/><v:tabList/>外径<tspan
						class="st12">OD</tspan></text>		</g>
		<g id="group88-183" transform="translate(336.281,-82.7372)" v:mID="88" v:groupContext="group">
			<title>工作表.88</title>
			<g id="shape72-184" v:mID="72" v:groupContext="shape" transform="translate(9.76684E-07,-3.65713E-07)">
				<title>工作表.72</title>
				<rect x="0" y="147.049" width="26.3622" height="35.4331" class="st2"/>
			</g>
			<g id="shape73-186" v:mID="73" v:groupContext="shape" transform="translate(133.287,276.084) rotate(135)">
				<title>工作表.73</title>
				<path d="M0 182.48 L6.01 182.48" class="st15"/>
			</g>
			<g id="shape74-189" v:mID="74" v:groupContext="shape" transform="translate(137.538,276.084) rotate(135)">
				<title>工作表.74</title>
				<path d="M0 182.48 L12.03 182.48" class="st15"/>
			</g>
			<g id="shape75-192" v:mID="75" v:groupContext="shape" transform="translate(141.79,276.084) rotate(135)">
				<title>工作表.75</title>
				<path d="M0 182.48 L18.04 182.48" class="st15"/>
			</g>
			<g id="shape76-195" v:mID="76" v:groupContext="shape" transform="translate(146.042,276.084) rotate(135)">
				<title>工作表.76</title>
				<path d="M0 182.48 L24.05 182.48" class="st15"/>
			</g>
			<g id="shape77-198" v:mID="77" v:groupContext="shape" transform="translate(150.22,276.158) rotate(135)">
				<title>工作表.77</title>
				<path d="M0 182.48 L29.96 182.48" class="st15"/>
			</g>
			<g id="shape78-201" v:mID="78" v:groupContext="shape" transform="translate(154.248,276.382) rotate(135)">
				<title>工作表.78</title>
				<path d="M0 182.48 L35.66 182.48" class="st15"/>
			</g>
			<g id="shape79-204" v:mID="79" v:groupContext="shape" transform="translate(155.068,280.522) rotate(135)">
				<title>工作表.79</title>
				<path d="M0 182.48 L36.82 182.48" class="st15"/>
			</g>
			<g id="shape80-207" v:mID="80" v:groupContext="shape" transform="translate(155.048,284.935) rotate(135.154)">
				<title>工作表.80</title>
				<path d="M0 182.48 L37.18 182.48" class="st15"/>
			</g>
			<g id="shape81-210" v:mID="81" v:groupContext="shape" transform="translate(155.476,288.618) rotate(134.819)">
				<title>工作表.81</title>
				<path d="M0 182.48 L31.71 182.48" class="st15"/>
			</g>
			<g id="shape82-213" v:mID="82" v:groupContext="shape" transform="translate(154.716,294.152) rotate(135.156)">
				<title>工作表.82</title>
				<path d="M0 182.48 L25.12 182.48" class="st15"/>
			</g>
			<g id="shape83-216" v:mID="83" v:groupContext="shape" transform="translate(155.048,298.613) rotate(135.154)">
				<title>工作表.83</title>
				<path d="M0 182.48 L18.79 182.48" class="st15"/>
			</g>
			<g id="shape84-219" v:mID="84" v:groupContext="shape" transform="translate(155.068,302.304) rotate(135)">
				<title>工作表.84</title>
				<path d="M0 182.48 L13.03 182.48" class="st15"/>
			</g>
			<g id="shape85-222" v:mID="85" v:groupContext="shape" transform="translate(155.068,307.265) rotate(135)">
				<title>工作表.85</title>
				<path d="M0 182.48 L6.01 182.48" class="st15"/>
			</g>
		</g>
		<g id="group89-225" transform="translate(434.643,-82.7372)" v:mID="89" v:groupContext="group">
			<title>工作表.89</title>
			<g id="shape90-226" v:mID="90" v:groupContext="shape" transform="translate(9.76684E-07,-3.65713E-07)">
				<title>工作表.90</title>
				<rect x="0" y="147.049" width="26.3622" height="35.4331" class="st2"/>
			</g>
			<g id="shape91-228" v:mID="91" v:groupContext="shape" transform="translate(133.287,276.084) rotate(135)">
				<title>工作表.91</title>
				<path d="M0 182.48 L6.01 182.48" class="st15"/>
			</g>
			<g id="shape92-231" v:mID="92" v:groupContext="shape" transform="translate(137.538,276.084) rotate(135)">
				<title>工作表.92</title>
				<path d="M0 182.48 L12.03 182.48" class="st15"/>
			</g>
			<g id="shape93-234" v:mID="93" v:groupContext="shape" transform="translate(141.79,276.084) rotate(135)">
				<title>工作表.93</title>
				<path d="M0 182.48 L18.04 182.48" class="st15"/>
			</g>
			<g id="shape94-237" v:mID="94" v:groupContext="shape" transform="translate(146.042,276.084) rotate(135)">
				<title>工作表.94</title>
				<path d="M0 182.48 L24.05 182.48" class="st15"/>
			</g>
			<g id="shape95-240" v:mID="95" v:groupContext="shape" transform="translate(150.22,276.158) rotate(135)">
				<title>工作表.95</title>
				<path d="M0 182.48 L29.96 182.48" class="st15"/>
			</g>
			<g id="shape96-243" v:mID="96" v:groupContext="shape" transform="translate(154.248,276.382) rotate(135)">
				<title>工作表.96</title>
				<path d="M0 182.48 L35.66 182.48" class="st15"/>
			</g>
			<g id="shape97-246" v:mID="97" v:groupContext="shape" transform="translate(155.068,280.522) rotate(135)">
				<title>工作表.97</title>
				<path d="M0 182.48 L36.82 182.48" class="st15"/>
			</g>
			<g id="shape98-249" v:mID="98" v:groupContext="shape" transform="translate(155.048,284.935) rotate(135.154)">
				<title>工作表.98</title>
				<path d="M0 182.48 L37.18 182.48" class="st15"/>
			</g>
			<g id="shape99-252" v:mID="99" v:groupContext="shape" transform="translate(155.476,288.618) rotate(134.819)">
				<title>工作表.99</title>
				<path d="M0 182.48 L31.71 182.48" class="st15"/>
			</g>
			<g id="shape100-255" v:mID="100" v:groupContext="shape" transform="translate(154.716,294.152) rotate(135.156)">
				<title>工作表.100</title>
				<path d="M0 182.48 L25.12 182.48" class="st15"/>
			</g>
			<g id="shape101-258" v:mID="101" v:groupContext="shape" transform="translate(155.048,298.613) rotate(135.154)">
				<title>工作表.101</title>
				<path d="M0 182.48 L18.79 182.48" class="st15"/>
			</g>
			<g id="shape102-261" v:mID="102" v:groupContext="shape" transform="translate(155.068,302.304) rotate(135)">
				<title>工作表.102</title>
				<path d="M0 182.48 L13.03 182.48" class="st15"/>
			</g>
			<g id="shape103-264" v:mID="103" v:groupContext="shape" transform="translate(155.068,307.265) rotate(135)">
				<title>工作表.103</title>
				<path d="M0 182.48 L6.01 182.48" class="st15"/>
			</g>
		</g>
		<g id="shape104-267" v:mID="104" v:groupContext="shape" transform="translate(362.643,-82.7372)">
			<title>工作表.104</title>
			<path d="M4.1 182.48 L4.46 182.48 L67.54 182.48" class="st26"/>
		</g>
		<g id="shape105-276" v:mID="105" v:groupContext="shape" transform="translate(339.115,-65.7293) rotate(4.45473E-07)">
			<title>工作表.105</title>
			<path d="M4.1 182.48 L4.46 182.48 L117.43 182.48" class="st26"/>
		</g>
		<g id="shape106-283" v:mID="106" v:groupContext="shape" transform="translate(518.763,99.7451) rotate(90)">
			<title>工作表.106</title>
			<path d="M0 182.48 L25.51 182.48" class="st28"/>
		</g>
		<g id="shape107-286" v:mID="107" v:groupContext="shape" transform="translate(643.487,99.7451) rotate(90)">
			<title>工作表.107</title>
			<path d="M0 182.48 L25.51 182.48" class="st28"/>
		</g>
		<g id="shape108-289" v:mID="108" v:groupContext="shape" transform="translate(362.643,-118.17)">
			<title>工作表.108</title>
			<path d="M0 182.48 L72 182.48" class="st15"/>
		</g>
		<g id="shape109-292" v:mID="109" v:groupContext="shape" transform="translate(654.826,64.312) rotate(90)">
			<title>工作表.109</title>
			<path d="M4.1 182.48 L4.46 182.48 L30.97 182.48" class="st26"/>
		</g>
		<g id="shape110-299" v:mID="110" v:groupContext="shape" transform="translate(461.005,-82.7372)">
			<title>工作表.110</title>
			<path d="M0 182.48 L24.09 182.48" class="st28"/>
		</g>
		<g id="shape111-302" v:mID="111" v:groupContext="shape" transform="translate(461.005,-118.17)">
			<title>工作表.111</title>
			<path d="M0 182.48 L24.09 182.48" class="st28"/>
		</g>
		<g id="shape112-305" v:mID="112" v:groupContext="shape" transform="translate(472.989,-90.4537)">
			<title>工作表.112</title>
			<desc>高度HT</desc>
			<v:textBlock v:margins="rect(4,4,4,4)" v:tabSpace="42.5197"/>
			<v:textRect cx="25.189" cy="172.482" width="50.38" height="20"/>
			<rect x="0" y="162.482" width="50.378" height="20" class="st5"/>
			<text x="5.19" y="176.43" class="st22" v:langID="2052"><v:paragraph v:horizAlign="1"/><v:tabList/>高度<tspan class="st12">HT</tspan></text>		</g>
		<g id="shape113-309" v:mID="113" v:groupContext="shape" transform="translate(369.15,-82.7372)">
			<title>工作表.113</title>
			<desc>内径ID</desc>
			<v:textBlock v:margins="rect(4,4,4,4)" v:tabSpace="42.5197"/>
			<v:textRect cx="30.8583" cy="172.482" width="61.72" height="20"/>
			<rect x="0" y="162.482" width="61.7165" height="20" class="st5"/>
			<text x="12.53" y="176.43" class="st22" v:langID="2052"><v:paragraph v:horizAlign="1"/><v:tabList/>内径<tspan
						class="st12">ID</tspan></text>		</g>
	</g>
</svg>
